{"title":"Adele- Live at the Royal Albert Hall 2011 BRRip","uid":6864119,"size":1973886350,"categoryP":"video","categoryS":"movies","magnet":"?xt=urn:btih:a0aaa0c84741e78ec0011bf6fc45775a6b51fc7e&amp;dn=Adele-+Live+at+the+Royal+Albert+Hall+2011+BRRip&amp;tr=udp%3A%2F%2Ftracker.openbittorrent.com%3A80&amp;tr=udp%3A%2F%2Fopen.demonii.com%3A1337&amp;tr=udp%3A%2F%2Ftracker.coppersurfer.tk%3A6969&amp;tr=udp%3A%2F%2Fexodus.desync.com%3A6969","seeders":1,"leechers":0,"uploader":"TUXtorrent","files":2,"time":1323027659,"description":"General Information\n Complete name: Adele-Live.at.the.Royal.Albert.Hall.2011.BRRip.XviD.AC3-PRESTiGE\n Format: AVI\n Format/Info: Audio Video Interleave\n File size: 1.81 GiB\n Duration: 1h 39mn\n Overall bit rate: 2 607 Kbps\n Subs: N/A\n Source: 720p BluRay DTS x264-DNL Many THANKS\n Encoder: akosipalos\n \nID: 0\n \nFormat: MPEG-4 Visual\n Format profile: Advanced Simple@L5\n Format settings, BVOP: 2\n Format settings, QPel: No\n Format settings, GMC: No warppoints\n Format settings, Matrix: Default (H.263)\n Codec ID: XVID\n Codec ID/Hint: XviD\n Duration: 1h 39mn\n Bit rate: 2 150 Kbps\n Width: 720 pixels\n Height: 304 pixels\n Display aspect ratio: 2.35:1\n Frame rate: 29.970 fps\n Color space: YUV\n Chroma subsampling: 4:2:0\n Bit depth: 8 bits\n Scan type: Progressive\n Compression mode: Lossy\n Bits/(Pixel*Frame): 0.328\n Stream size: 1.49 GiB (82%)\n Writing library: XviD 1.2.1 (UTC 2008-12-04)\n \nID: 1\n \nFormat: AC-3\n Format/Info: Audio Coding 3\n Mode extension: CM (complete main)\n Codec ID: 2000\n Duration: 1h 39mn\n Bit rate mode: Constant\n Bit rate: 448 Kbps\n Channel(s): 6 channels\n Channel positions: Front: L C R, Side: L R, LFE\n Sampling rate: 48.0 KHz\n Bit depth: 16 bits\n Compression mode: Lossy\n Stream size: 318 MiB (17%)\n Alignment: Aligned on interleaves\n Interleave, duration: 64 ms (1.92 video frames)\n Interleave, preload duration: 192 ms \n","torrent":{"xt":"urn:btih:a0aaa0c84741e78ec0011bf6fc45775a6b51fc7e","amp;dn":"Adele-+Live+at+the+Royal+Albert+Hall+2011+BRRip","amp;tr":["udp%3A%2F%2Ftracker.openbittorrent.com%3A80","udp%3A%2F%2Fopen.demonii.com%3A1337","udp%3A%2F%2Ftracker.coppersurfer.tk%3A6969","udp%3A%2F%2Fexodus.desync.com%3A6969"],"infoHash":"a0aaa0c84741e78ec0011bf6fc45775a6b51fc7e","infoHashBuffer":{"type":"Buffer","data":[160,170,160,200,71,65,231,142,192,1,27,246,252,69,119,90,107,81,252,126]},"announce":[],"urlList":[]}}